<svg width="651" height="574" viewBox="0 0 651 574" fill="none" xmlns="http://www.w3.org/2000/svg">
<path d="M485.384 147.73C512.442 197.729 533.62 238.308 537.145 302.421C540.67 366.534 512.738 447.707 540.966 498.876C573.622 504.741 581.916 515.893 581.664 541.159C581.634 543.706 580.035 545.987 577.651 546.905C550.844 557.287 531.503 556.117 524.201 554.162C516.9 552.207 455.098 515.641 455.098 515.641L434.808 290.366L485.384 147.73Z" fill="black"/>
<path d="M386.868 433.001C389.815 446.523 406.565 520.928 418.339 561.819C428.454 572.778 484.007 579.443 520.736 564.085C523.742 562.826 525.578 559.73 525.134 556.502C521.002 525.875 502.445 522.542 480.985 519.477C473.047 505.955 463.05 440.658 463.05 440.658L386.883 433.016L386.868 433.001Z" fill="black"/>
<path d="M355.1 478.882C355.1 478.882 303.043 513.286 281.287 515.049C300.111 515.049 343.341 505.348 357.751 505.926C370.828 506.459 406.195 523.224 411.082 555.554C411.971 561.404 408.209 566.987 402.433 568.276C358.699 578.065 302.821 570.586 287.167 565.921C261.575 561.804 239.523 565.921 221.884 565.329C204.245 564.736 195.122 558.531 195.122 539.87C195.122 521.21 219.825 515.922 219.825 515.922" fill="black"/>
<path d="M132.713 423.286C136.756 270.402 413.274 277.659 398.968 146.886C400.093 144.531 534.08 90.6375 534.08 90.6375C534.776 92.1036 535.412 93.6143 536.197 95.036C545.498 112.245 554.236 129.721 557.85 149.182C557.85 149.182 564.899 371.258 467.671 449.84C398.553 505.703 294.794 520.099 294.794 520.099L263.663 537.042L204.497 530.259C154.572 513.005 132.18 496.669 132.698 423.271L132.713 423.286Z" fill="black"/>
<path d="M371.945 164.84C370.109 269.103 402.469 304.469 420.359 321.9C422.211 323.692 425.291 322.182 424.965 319.62C424.491 315.858 424.284 311.815 424.195 308.853C424.165 307.623 425.646 307.001 426.52 307.846C495.994 375.024 537.373 381.585 552.317 380.859C555.797 380.696 556.612 378.534 554.064 376.164C545.341 368.034 542.823 359.177 541.624 346.026C541.491 344.619 543.371 343.938 544.127 345.137C549.651 353.801 560.818 360.007 567.408 361.695C569.244 362.169 571.199 361.591 572.444 360.169C599.724 329.291 603.456 311.77 605.485 289.925C605.485 289.837 605.574 289.748 605.662 289.718C609.72 288.8 613.304 291.569 616.192 294.813C617.688 296.501 620.472 295.672 620.902 293.465C623.894 278.3 620.517 255.625 608.491 232.033C608.461 231.974 608.461 231.9 608.491 231.84C641.088 178.406 582.425 147.897 578.027 145.705C577.908 145.646 577.923 145.498 578.027 145.439C588.794 139.5 594.036 131.177 593.888 124.808C593.844 123.15 592.363 121.935 590.719 122.187C585.284 123.031 576.264 123.549 571.392 119.98C571.259 119.877 571.288 119.669 571.451 119.595C583.521 114.738 584.677 102.889 581.581 96.6989C580.589 94.7144 578.545 94.4774 577.079 96.1509C571.91 102.075 563.661 107.096 560.003 100.979C555.871 94.0479 551.073 89.4568 545.578 86.6577C545.43 86.5836 545.4 86.3911 545.519 86.2726C571.125 58.4594 537.077 19.7904 517.38 1.5C514.255 -1.40277 509.19 0.241148 508.316 4.40277C502.896 29.9945 483.124 69.1226 481.066 73.1806C480.962 73.3879 480.74 73.4916 480.503 73.4471C478.918 73.1213 471.065 72.5338 471.065 72.5338C471.135 72.6407 464.395 72.0048 463.565 74.0338C463.622 73.898 463 74 463 74C463 74.0741 461.059 74.5444 461 74.5C460.941 74.4556 458.065 75.5338 458.065 75.5338L450.065 80.0338C450.065 80.0338 447.565 81.5338 446.065 82.5338C444.565 83.5338 444.811 83.5328 443.552 83.9327C437.45 85.932 423.647 90.2269 415.783 96.4471C414.776 97.2469 413.413 97.3505 412.288 96.7433C397.818 88.8348 363 63.6577 348.531 53.0685C345.376 50.7582 340.903 52.4021 340 56.1935C333.869 81.7852 319.059 160.886 369.664 162.396C370.953 162.441 371.96 163.522 371.93 164.81L371.945 164.84Z" fill="black"/>
<path d="M532.85 160.807C541.046 160.807 547.69 154.163 547.69 145.968C547.69 137.772 541.046 131.128 532.85 131.128C524.655 131.128 518.011 137.772 518.011 145.968C518.011 154.163 524.655 160.807 532.85 160.807Z" fill="white"/>
<path d="M460.77 198.677C468.965 198.677 475.609 192.033 475.609 183.837C475.609 175.641 468.965 168.997 460.77 168.997C452.574 168.997 445.93 175.641 445.93 183.837C445.93 192.033 452.574 198.677 460.77 198.677Z" fill="white"/>
<path d="M635.291 141.851C635.291 141.851 611.891 161.133 597.777 169.871" stroke="#010101" stroke-width="7.4" stroke-linecap="round"/>
<path d="M647.08 162.259C647.08 162.259 620.97 177.661 605.671 184.104" stroke="#010101" stroke-width="7.4" stroke-linecap="round"/>
<path d="M482.318 224.431C482.318 224.431 453.779 234.665 437.548 238.116" stroke="white" stroke-width="7.4" stroke-linecap="round"/>
<path d="M487.665 239.315C487.665 239.315 462.058 255.532 446.967 262.449" stroke="white" stroke-width="7.4" stroke-linecap="round"/>
<path d="M557.266 195.109C559.57 199.798 556.522 212.803 547.104 217.334C537.685 221.865 525.473 216.219 523.169 211.53C518.996 203.046 526.631 199.367 536.039 194.825C545.458 190.294 553.082 186.614 557.255 195.098L557.266 195.109Z" fill="white"/>
<path d="M206.718 459.259C152.528 463.317 105.299 422.693 101.241 368.503C101.241 368.4 101.241 368.296 101.227 368.177C101.108 366.608 101.034 365.023 100.99 363.468C100.975 362.831 100.99 362.209 100.99 361.572C100.99 360.535 100.96 359.514 100.99 358.492C101.004 357.751 101.064 357.011 101.108 356.27C101.152 355.367 101.182 354.449 101.241 353.56C101.301 352.76 101.404 351.975 101.478 351.19C101.567 350.361 101.626 349.517 101.73 348.687C101.834 347.858 101.982 347.029 102.1 346.199C102.219 345.429 102.322 344.659 102.456 343.889C102.604 343.015 102.796 342.156 102.974 341.297C103.122 340.586 103.255 339.875 103.404 339.179C103.611 338.261 103.863 337.373 104.085 336.469C104.248 335.832 104.396 335.181 104.574 334.544C104.84 333.596 105.136 332.663 105.433 331.73C105.61 331.152 105.773 330.575 105.966 329.997C106.292 329.02 106.647 328.057 107.002 327.109C107.195 326.591 107.373 326.058 107.58 325.539C107.965 324.532 108.395 323.555 108.824 322.563C109.017 322.103 109.194 321.644 109.402 321.185C109.861 320.148 110.35 319.141 110.853 318.134C111.046 317.734 111.223 317.335 111.431 316.935C111.964 315.883 112.527 314.846 113.089 313.81C113.282 313.469 113.445 313.129 113.637 312.788C114.245 311.722 114.881 310.67 115.518 309.619C115.696 309.337 115.859 309.056 116.037 308.774C116.718 307.693 117.429 306.627 118.154 305.575C118.302 305.353 118.451 305.116 118.613 304.894C119.384 303.798 120.169 302.732 120.983 301.666C121.116 301.488 121.235 301.31 121.368 301.132C122.212 300.036 123.086 298.955 123.975 297.904C124.078 297.771 124.182 297.637 124.301 297.519C125.234 296.423 126.181 295.356 127.159 294.305C127.248 294.216 127.322 294.127 127.396 294.038C128.403 292.957 129.425 291.906 130.491 290.884C130.55 290.825 130.595 290.765 130.654 290.721C131.735 289.669 132.846 288.633 133.972 287.626C134.001 287.596 134.031 287.566 134.06 287.552C135.216 286.53 136.4 285.523 137.615 284.545C152.217 272.771 170.315 265.055 190.324 263.219C190.872 263.174 191.42 263.1 191.968 263.056H192.19C196.544 262.715 197.225 256.554 193.034 255.325C180.653 251.696 167.413 250.201 153.787 251.223C150.544 251.46 147.345 251.874 144.19 252.393C144.146 252.393 144.116 252.393 144.072 252.393C142.783 252.6 140.799 252.941 138.281 253.518C114.496 258.731 93.8067 271.498 78.6116 289.047C77.4416 290.395 75.2645 289.077 75.9606 287.418C78.4635 281.376 81.3218 275.615 85.0243 270.017C87.1866 266.758 83.6766 262.73 80.1222 264.344C28.8055 287.611 -4.84294 341.505 0.577535 401.13C7.4642 476.942 73.9761 531.947 149.744 524.645C204.141 519.403 248.261 482.733 265.425 434.052C249.771 448.255 229.452 457.571 206.733 459.274L206.718 459.259Z" fill="black"/>
<path d="M482.348 519.077C482.6 519.566 483.089 519.877 483.622 519.951C504.089 522.883 521.743 534.168 526.541 561.804C526.541 561.804 532.939 560.293 533.265 560.13C528.022 524.838 509.095 517.566 485.236 511.065C484.703 510.917 484.214 510.665 483.962 510.191C477.979 498.772 471.996 459.437 468.975 441.295C468.53 438.377 463.954 438.54 464.502 442.05C465.272 446.774 474.78 504.667 482.333 519.062L482.348 519.077Z" fill="white"/>
<mask id="mask0_625_26" style="mask-type:alpha" maskUnits="userSpaceOnUse" x="413" y="47" width="88" height="105">
<path d="M492.568 142.431C495.152 141.873 495.83 143.317 493.403 144.668C467.242 159.237 434.369 150.115 420 124.306C405.631 98.4974 415.192 65.7462 441.354 51.1806C443.778 49.8311 445.032 50.8323 443.345 52.5399C426.822 69.1724 422.436 95.1128 434.267 116.363C446.098 137.613 469.95 147.331 492.572 142.429M449.341 122.315C448.51 121.133 447.739 119.899 447.026 118.618C435.616 98.1232 443.081 72.2059 463.696 60.7283C483.186 49.8774 493.853 55.2685 494.263 54.3007C494.709 53.2381 477.299 40.4724 454.414 53.2138C433.795 64.6931 426.333 90.6087 437.743 111.103C440.383 115.844 443.794 119.866 447.736 123.121C449.394 124.486 450.459 123.91 449.341 122.315ZM450.086 86.8638C457.447 77.2574 469.563 70.3451 483.862 67.838C493.462 66.1471 500.344 67.5397 500.634 67.1614C501.116 66.5339 491.139 61.1219 479.529 62.8464C465.476 64.9365 454.239 74.1953 449.078 86.3809C448.511 87.7237 449.183 88.0392 450.086 86.8638Z" fill="#00A4EB"/>
</mask>
<g mask="url(#mask0_625_26)">
<path d="M498.689 36.4274L456.624 26.6556L391.532 62.8951L410.26 96.5332C410.26 96.5332 425.951 102.104 429.302 101.955C432.653 101.806 453.563 78.7193 466.088 73.463C478.613 68.2067 512.72 85.2704 512.72 85.2704L498.689 36.4274Z" fill="#00A4EB"/>
</g>
</svg>
