<svg width="201" height="230" viewBox="0 0 201 230" fill="none" xmlns="http://www.w3.org/2000/svg">
<g clip-path="url(#clip0_817_37)">
<path d="M88.4316 227.928C80.2339 226.783 39.5575 209.797 33.1435 204.594C32.0185 203.684 30.8818 202.766 29.7997 201.84L28.8505 201.016C17.9715 191.626 6.8491 182.828 2.81548 160.286C2.35679 157.723 1.92582 155.207 1.52255 152.739C1.20484 150.112 0.98349 148.097 0.85849 146.696C0.634287 144.425 0.327647 141.769 0.327647 139.083C0.0112365 130.705 0.319265 121.036 1.22551 109.805C3.27631 84.4424 28.9985 9.73536 46.1515 1.12536C47.9953 0.199578 48.9874 0.527698 49.714 0.988638C55.0812 4.34804 58.7492 15.7976 61.698 24.9886C63.2488 29.7972 64.7058 34.3519 66.3699 37.9186C66.9598 39.1725 68.1863 40.0124 69.573 40.1061C77.0339 40.5788 140.694 54.0401 144.143 55.2861C145.788 56.3173 147.87 55.8721 149.049 54.3916L149.1 54.4424C176.647 22.1064 188.108 18.1024 192.557 18.6184C193.623 18.7473 195.022 19.1809 196.252 21.5598C202.994 34.4548 200.084 67.2868 197.741 93.6728C196.963 102.395 196.237 110.614 195.826 117.954C194.991 133.524 188.541 186.465 178.389 201.84C170.023 214.51 149.049 236.393 88.4316 227.928Z" fill="black"/>
<mask id="mask0_817_37" style="mask-type:alpha" maskUnits="userSpaceOnUse" x="67" y="17" width="99" height="107">
<path d="M111.412 121.639C108.883 122.409 108.993 124 111.771 124C141.715 124.004 166 100.043 166 70.5036C166 40.9644 141.715 17 111.771 17C108.997 17 108.388 18.485 110.693 19.1563C133.22 25.6509 149.67 46.1819 149.67 70.5036C149.67 94.8254 133.557 114.918 111.408 121.639M139.396 83.0368C139.546 81.5991 139.62 80.1469 139.62 78.6802C139.62 55.2232 120.49 36.2101 96.8949 36.2101C74.5878 36.2101 67.8909 46.1089 67.0615 45.4631C66.1551 44.7515 75.1565 25.1292 101.35 25.1292C124.949 25.1292 144.075 44.1423 144.075 67.5992C144.075 73.0248 143.051 78.1987 141.19 82.9602C140.405 84.9596 139.194 84.9741 139.396 83.0368ZM121.499 52.4247C110.395 47.6121 96.4472 47.4661 82.7342 52.2312C73.5235 55.4239 68.1881 59.9883 67.7513 59.7985C67.0248 59.4848 73.1089 49.9034 84.092 45.7622C97.3867 40.7527 111.709 43.3759 122.145 51.5124C123.294 52.4099 122.861 53.0121 121.499 52.4247Z" fill="#00A4EB"/>
</mask>
<g mask="url(#mask0_817_37)">
<path d="M54.5 32L86.5 3H161V41.5C161 41.5 150 54 147 55.5C144 57 114.5 47 101 48.5C87.5 50 66 81.5 66 81.5L54.5 32Z" fill="#00A4EB"/>
</g>
<path d="M146.5 55.4999C145 55.9999 134.5 53.4999 134.5 53.4999L132 56.4999L143 61.4999L151.5 57.4999L155.5 53.4999L157 47.4999C156.667 47.3332 155.9 47.0999 155.5 47.4999L155.5 47.4999C155.1 47.9002 148 54.9999 146.5 55.4999Z" fill="black"/>
</g>
<defs>
<clipPath id="clip0_817_37">
<rect width="201" height="230" fill="white"/>
</clipPath>
</defs>
</svg>
