<svg width="394" height="547" viewBox="0 0 394 547" fill="none" xmlns="http://www.w3.org/2000/svg">
<path fill-rule="evenodd" clip-rule="evenodd" d="M22.6606 446.136C25.8326 482.257 50.6096 508.749 100.606 529.515L100.603 529.525C135.373 543.951 197.033 550.595 244.053 544.951C278.608 540.88 302.151 530.666 322.436 520.228C339.971 511.193 356.521 497.232 366.709 482.873C379.505 464.791 386.861 437.252 391.271 418.115C398.169 387.923 388.747 318.235 377.392 295.575C359.806 260.333 346.524 241.286 314.333 221.552C309.277 218.46 302.184 214.429 294.63 210.137L293.704 209.611C282.447 203.228 270.814 196.627 263.099 191.611C261.165 190.361 259.118 189.17 257.052 187.974C250.302 184.025 243.321 179.939 238.497 173.345C227.275 158.075 218.806 132.989 219.642 117.419C220.052 110.079 220.779 101.861 221.556 93.1382C223.9 66.7522 226.81 33.9202 220.068 21.0252C218.837 18.6463 217.439 18.2128 216.373 18.0838C211.924 17.5678 200.463 21.5718 172.916 53.9078L172.865 53.8571C171.685 55.3375 169.603 55.7828 167.959 54.7516C164.51 53.5056 100.849 40.0443 93.3886 39.5716C92.0019 39.4779 90.7753 38.638 90.1855 37.3841C88.5583 33.8965 87.1291 29.4642 85.6166 24.7736L85.5136 24.4541L85.5024 24.4192C82.5555 15.2341 78.89 3.80924 73.5296 0.454092C72.803 -0.0068476 71.8109 -0.334968 69.9671 0.590812C52.8141 9.20081 27.0919 83.9078 25.0411 109.271C24.1348 120.502 23.8965 130.162 24.2129 138.541C23.5127 138.512 22.7985 138.476 22.0732 138.441H22.073H22.0728H22.0726H22.0725L22.0655 138.44C21.5228 138.413 20.9739 138.386 20.4199 138.361C14.9159 138.084 8.66585 137.779 3.53695 138.146C1.44325 138.295 -0.138792 140.107 0.00964826 142.201C0.169848 144.299 1.99795 145.799 4.07215 145.724C8.61224 145.392 14.1134 145.659 19.5044 145.921L20.0451 145.947C21.6349 146.029 23.1974 146.103 24.674 146.162C24.8615 148.263 25.0842 150.279 25.3381 152.205C18.8741 154.205 11.4049 156.318 4.06511 156.318H3.79949C1.71349 156.318 0.0182073 158.006 0.00648826 160.088C-0.00141174 162.189 1.68609 163.896 3.78379 163.912H4.06504C12.069 163.912 19.8498 161.838 26.631 159.752C31.303 182.025 41.787 191.091 52.666 200.482L53.6153 201.306C54.6635 202.203 55.7629 203.092 56.8533 203.974L56.9591 204.06L56.9683 204.067C63.3801 209.269 70.6696 215.182 69.9161 224.935C66.3317 269.199 78.28 292.96 90.9294 318.115L90.9471 318.15C102.561 341.232 114.572 365.107 114.752 405.58C114.752 405.908 114.709 406.22 114.631 406.533C112.937 413.163 107.621 418.052 101.983 423.236L101.975 423.244L101.946 423.27C96.2606 428.512 90.3945 433.92 88.663 441.076C87.6943 445.107 88.6279 448.506 91.5107 451.463C97.0657 457.166 108.855 459.83 119.105 457.807C120.511 452.127 125.257 446.697 130.308 441.006C134.816 435.923 139.476 430.666 140.519 426.162C140.991 424.119 143.038 422.834 145.081 423.318C147.128 423.798 148.39 425.841 147.921 427.88C146.441 434.26 141.137 440.245 136.003 446.039L135.995 446.048C131.171 451.482 126.182 457.107 126.245 461.204C126.245 461.982 126.393 463.115 127.722 464.572C133.031 470.419 142.566 473.576 153.156 472.943C165.632 472.24 176.718 466.735 182.82 458.224L183.171 457.739C186.5 453.141 193.421 443.559 195.558 432.95C195.968 430.888 197.992 429.583 200.031 429.978C202.082 430.388 203.421 432.4 203.004 434.458C201.121 443.786 196.273 452.079 192.461 457.731C192.495 457.737 192.53 457.74 192.564 457.742C192.59 457.743 192.616 457.743 192.642 457.744C192.723 457.746 192.804 457.748 192.886 457.77C216.749 464.958 255.44 464.294 277.585 459.294C276.667 455.68 276.816 451.579 278.206 447.13C281.432 436.856 289.96 426.789 297.268 422.032C296.905 421.224 296.523 420.389 296.133 419.537L296.121 419.51L296.118 419.504L295.768 418.739L295.768 418.738C293.042 412.789 290.225 406.644 288.987 401.77C288.472 399.73 289.706 397.66 291.733 397.152C293.753 396.641 295.843 397.855 296.35 399.895C297.417 404.106 300.21 410.207 302.667 415.575C303.733 417.895 304.764 420.145 305.632 422.184C306.452 424.102 305.577 426.329 303.651 427.157C297.639 429.778 288.389 440.059 285.471 449.399C284.127 453.684 284.237 457.156 285.815 459.719C286.76 461.227 288.307 462.512 290.397 463.496C290.749 463.668 291.069 463.883 291.346 464.144C293.229 465.883 296.858 466.223 300.053 466.512C311.671 467.445 324.206 466.137 327.694 463.684C328.218 463.309 328.792 463.129 329.382 463.055C329.55 462.883 329.718 462.715 329.885 462.547L329.891 462.54C330.144 462.287 330.396 462.034 330.651 461.769C343.037 448.687 344.905 441.163 347.092 422.964C347.346 420.882 349.198 419.464 351.319 419.652C353.401 419.906 354.881 421.793 354.635 423.879C352.327 443.098 350.006 452.387 336.147 467.004C335.147 468.05 334.175 469.035 333.19 470.019C298.274 504.547 249.509 510.922 223.54 511.656C133.727 514.05 80.9152 497.625 66.5202 462.859C64.2936 457.492 63.3248 450.645 62.3014 443.379C59.6724 424.691 56.9544 412.512 43.5164 413.289L43.5103 413.289H43.51C38.4761 413.594 32.7763 413.939 29.3364 417.066C22.2582 423.363 21.8012 436.347 22.6606 446.136ZM217.871 192.533C219.918 193.017 221.172 195.064 220.696 197.095L220.696 197.095C220.286 198.841 218.723 200.021 217.001 200.021C216.715 200.021 216.419 199.99 216.126 199.916C211.09 198.721 206.32 196.278 201.713 193.918L201.618 193.869L201.601 193.86C198.248 192.137 195.093 190.515 191.993 189.427C190.016 188.724 188.969 186.56 189.664 184.588C190.352 182.607 192.516 181.564 194.5 182.252C198.107 183.52 201.651 185.339 205.082 187.099L205.082 187.099L205.09 187.103C209.524 189.388 213.707 191.545 217.871 192.533ZM223.785 176.099C224.137 174.029 222.746 172.072 220.688 171.717C217.232 171.122 213.784 170.628 210.312 170.13L210.311 170.13L210.311 170.13L210.31 170.13L210.262 170.123C206.297 169.572 202.312 168.998 198.282 168.271C196.219 167.924 194.239 169.267 193.868 171.334C193.493 173.404 194.86 175.381 196.93 175.748C201.014 176.486 205.044 177.063 209.063 177.639L209.196 177.658C212.618 178.135 216.012 178.623 219.403 179.197C219.622 179.224 219.837 179.248 220.051 179.248C221.86 179.248 223.473 177.951 223.786 176.1L223.785 176.099ZM169.3 130.728C177.141 130.728 183.527 137.115 183.527 145.013C183.527 152.868 177.14 159.243 169.3 159.243C161.386 159.243 155.011 152.869 155.011 145.013C155.011 137.166 161.386 130.728 169.3 130.728ZM115.961 150.435C115.504 143.498 87.3994 140.154 88.7664 150.435C90.1336 161.173 117.684 161.576 115.961 150.435ZM49.4104 114.775C56.9143 114.775 63.0354 120.861 63.0354 128.357C63.0354 135.896 56.9143 141.982 49.4104 141.982C41.922 141.982 35.7814 135.896 35.7814 128.357C35.7814 120.861 41.9221 114.775 49.4104 114.775Z" fill="black"/>
<mask id="mask0_813_10" style="mask-type:alpha" maskUnits="userSpaceOnUse" x="91" y="16" width="99" height="107">
<path d="M135.412 120.639C132.883 121.409 132.993 123 135.771 123C165.715 123.004 190 99.0431 190 69.5036C190 39.9644 165.715 16 135.771 16C132.997 16 132.388 17.485 134.693 18.1563C157.22 24.6509 173.67 45.1819 173.67 69.5036C173.67 93.8254 157.557 113.918 135.408 120.639M163.396 82.0368C163.546 80.5991 163.62 79.1469 163.62 77.6802C163.62 54.2232 144.49 35.2101 120.895 35.2101C98.5878 35.2101 91.8909 45.1089 91.0615 44.4631C90.1551 43.7515 99.1565 24.1292 125.35 24.1292C148.949 24.1292 168.075 43.1423 168.075 66.5992C168.075 72.0248 167.051 77.1987 165.19 81.9602C164.405 83.9596 163.194 83.9741 163.396 82.0368ZM145.499 51.4247C134.395 46.6121 120.447 46.4661 106.734 51.2312C97.5235 54.4239 92.1881 58.9883 91.7513 58.7985C91.0248 58.4848 97.1089 48.9034 108.092 44.7622C121.387 39.7527 135.709 42.3759 146.145 50.5124C147.294 51.4099 146.861 52.0121 145.499 51.4247Z" fill="#00A4EB"/>
</mask>
<g mask="url(#mask0_813_10)">
<path d="M78.5 31L110.5 2H185V40.5C185 40.5 174 53 171 54.5C168 56 138.5 46 125 47.5C111.5 49 90 80.5 90 80.5L78.5 31Z" fill="#00A4EB"/>
</g>
<path d="M170.5 54.5C169 55 158.5 52.5 158.5 52.5L156 55.5L167 60.5L175.5 56.5L179.5 52.5L181 46.5C180.667 46.3333 179.9 46.1 179.5 46.5L179.5 46.5C179.1 46.9002 172 54 170.5 54.5Z" fill="black"/>
</svg>
